<svg xmlns="http://www.w3.org/2000/svg" viewBox="0 0 40 40">
  <defs>
    <style>
      .cls-1 {
        opacity: 1;
      }

      .cls-2 {
        fill: #999999;
      }

      .cls-3 {
        fill: none;
      }
    </style>
  </defs>
  <g id="cart" class="cls-1" transform="translate(-1104 -24)">
    <path id="Union_8" data-name="Union 8" class="cls-2" d="M25.594,33.5a3.518,3.518,0,1,1,3.519,3.518A3.523,3.523,0,0,1,25.594,33.5Zm1.964,0a1.554,1.554,0,1,0,1.555-1.554A1.555,1.555,0,0,0,27.558,33.5Zm-14.3,0a3.518,3.518,0,1,1,3.518,3.518A3.523,3.523,0,0,1,13.254,33.5Zm1.966,0a1.553,1.553,0,1,0,1.552-1.554A1.555,1.555,0,0,0,15.22,33.5Zm-3.642-5.107a1.974,1.974,0,0,1-1.925-1.566L4.9,3.755.593,1.883a.982.982,0,1,1,.78-1.8L5.684,1.953A1.959,1.959,0,0,1,6.826,3.359l.618,3H38.037a1.964,1.964,0,0,1,1.923,2.36L37.212,22.051a1.972,1.972,0,0,1-1.923,1.568H11l.579,2.805h23.53a.982.982,0,0,1,0,1.964ZM10.6,21.655H35.29L38.037,8.322H7.85Zm6.074-3.135a.982.982,0,0,1,0-1.964H29.211a.982.982,0,1,1,0,1.964Zm-.765-5.1a.982.982,0,1,1,0-1.964H29.978a.982.982,0,1,1,0,1.964Z" transform="translate(1104 26.5)"/>
    <rect id="Rectangle_501" data-name="Rectangle 501" class="cls-3" width="40" height="40" transform="translate(1104 24)"/>
  </g>
</svg>
