<svg xmlns="http://www.w3.org/2000/svg" viewBox="0 0 40 40">
  <defs>
    <style>
      .cls-1 {
        fill: #8a8a8a;
      }

      .cls-2 {
        fill: none;
      }
    </style>
  </defs>
  <g id="ic_search" transform="translate(-499 -21)">
    <path id="Path_2334" data-name="Path 2334" class="cls-1" d="M-2558.671,230.744A9.927,9.927,0,0,1-2565,233a9.937,9.937,0,0,1-7.071-2.929A9.935,9.935,0,0,1-2575,223a9.935,9.935,0,0,1,2.929-7.071A9.931,9.931,0,0,1-2565,213a9.934,9.934,0,0,1,7.071,2.929,10.016,10.016,0,0,1,.672,13.4l5.692,5.692-1.414,1.414Zm-11.986-13.4a8.01,8.01,0,0,0,0,11.314A7.944,7.944,0,0,0-2565,231a7.946,7.946,0,0,0,5.585-2.271l.142-.142a8.011,8.011,0,0,0-.07-11.243A7.948,7.948,0,0,0-2565,215,7.947,7.947,0,0,0-2570.656,217.344Z" transform="translate(3082 -184)"/>
    <rect id="Rectangle_1784" data-name="Rectangle 1784" class="cls-2" width="40" height="40" transform="translate(499 21)"/>
  </g>
</svg>
