<svg xmlns="http://www.w3.org/2000/svg" viewBox="0 0 60 60.042">
  <defs>
    <style>
      .cls-1 {
        fill: #000;
      }
    </style>
  </defs>
  <g id="_01" data-name="01" transform="translate(-0.175)">
    <g id="Group_1103" data-name="Group 1103" transform="translate(29.002 16.847)">
      <g id="Group_1102" data-name="Group 1102">
        <path id="Path_367" data-name="Path 367" class="cls-1" d="M247.173,143.666a1.173,1.173,0,0,0,0,2.345A10.84,10.84,0,0,1,258,156.839a1.173,1.173,0,1,0,2.345,0A13.188,13.188,0,0,0,247.173,143.666Z" transform="translate(-246 -143.666)"/>
      </g>
    </g>
    <g id="Group_1105" data-name="Group 1105" transform="translate(17.002 28.848)">
      <g id="Group_1104" data-name="Group 1104">
        <path id="Path_368" data-name="Path 368" class="cls-1" d="M153.15,257.354a10.861,10.861,0,0,1-7.138-10.183,1.173,1.173,0,0,0-2.345,0,13.213,13.213,0,0,0,8.684,12.388,1.173,1.173,0,1,0,.8-2.2Z" transform="translate(-143.667 -245.998)"/>
      </g>
    </g>
    <g id="Group_1107" data-name="Group 1107" transform="translate(28.953 40.848)">
      <g id="Group_1106" data-name="Group 1106">
        <path id="Path_369" data-name="Path 369" class="cls-1" d="M246.8,348.329h-.049a1.173,1.173,0,0,0-.008,2.345h.057a1.173,1.173,0,0,0,0-2.345Z" transform="translate(-245.583 -348.329)"/>
      </g>
    </g>
    <g id="Group_1109" data-name="Group 1109" transform="translate(0.175)">
      <g id="Group_1108" data-name="Group 1108" transform="translate(0)">
        <path id="Path_370" data-name="Path 370" class="cls-1" d="M57.952,25.672l-5.088-3.439a.606.606,0,0,1-.264-.562.607.607,0,0,1,.771-.524l3.517,1.011a1.173,1.173,0,0,0,1.7-1.276l-.006-.03a1.172,1.172,0,0,0-.062-.2L57.7,18.127a5.042,5.042,0,0,0-3.922-3.413l-6.047-1.072a.606.606,0,0,1-.47-.406.607.607,0,0,1,.492-.792l3.857-.54a1.173,1.173,0,0,0,.709-1.946L50.466,7.9a5.041,5.041,0,0,0-4.971-1.522l-5.96,1.48a.607.607,0,0,1-.594-.18.607.607,0,0,1,.127-.924l3.3-2.062a1.173,1.173,0,0,0-.144-2.066L39.694,1.5a5.042,5.042,0,0,0-5.161.631L29.691,5.9a.606.606,0,0,1-.616.078.607.607,0,0,1-.26-.9L30.994,1.86a1.168,1.168,0,0,0,.2-.714A1.172,1.172,0,0,0,30.022,0H27.25a5.042,5.042,0,0,0-4.458,2.676L19.9,8.1a.606.606,0,0,1-.531.321h0a.607.607,0,0,1-.6-.712l.678-3.835a1.173,1.173,0,0,0-1.632-1.276L15.286,3.721A5.042,5.042,0,0,0,12.3,7.979L11.867,14.1a.606.606,0,0,1-.355.51.607.607,0,0,1-.839-.406l-.94-3.779a1.173,1.173,0,0,0-2.01-.5l-1.855,2.06a5.042,5.042,0,0,0-.994,5.1l2.1,5.773a.606.606,0,0,1-.117.61.607.607,0,0,1-.932-.03l-2.4-3.07a1.173,1.173,0,0,0-2.04.359L.629,23.369A5.042,5.042,0,0,0,1.8,28.436l4.262,4.422a.606.606,0,0,1,.141.6.607.607,0,0,1-.863.352L1.9,31.983A1.173,1.173,0,0,0,.181,33.141L.471,35.9A5.042,5.042,0,0,0,3.6,40.052L9.29,42.358a.606.606,0,0,1,.375.495.606.606,0,0,1-.646.673l-3.885-.274a1.173,1.173,0,0,0-1.1,1.756l1.386,2.4a5.042,5.042,0,0,0,4.546,2.523l6.138-.209a.607.607,0,0,1,.544.3.606.606,0,0,1-.316.877l-3.66,1.33a1.173,1.173,0,0,0-.289,2.051l2.243,1.629a5.043,5.043,0,0,0,5.179.456l5.522-2.687a.606.606,0,0,1,.619.052.607.607,0,0,1,.068.93l-2.8,2.7a1.173,1.173,0,0,0,.57,1.991l2.711.576a5.045,5.045,0,0,0,4.917-1.69l3.952-4.7a.607.607,0,0,1,.586-.2.607.607,0,0,1,.44.822l-1.424,3.518a1.173,1.173,0,0,0,1.288,1.68l2.711-.576a5.042,5.042,0,0,0,3.8-3.544l1.7-5.9a.607.607,0,0,1,.453-.425.607.607,0,0,1,.737.572l.134,3.892a1.173,1.173,0,0,0,1.861.908L49.9,52.651a5.042,5.042,0,0,0,2.034-4.785l-.849-6.082a.606.606,0,0,1,.241-.572.607.607,0,0,1,.905.223l1.705,3.5a1.173,1.173,0,0,0,2.07.073l1.386-2.4a5.042,5.042,0,0,0-.088-5.2L54.05,32.2a.606.606,0,0,1-.013-.621.607.607,0,0,1,.918-.165l2.982,2.5a1.173,1.173,0,0,0,1.921-.775l.29-2.757A5.043,5.043,0,0,0,57.952,25.672Zm-.137,4.468-.059.562-1.292-1.085a2.952,2.952,0,0,0-4.4,3.822l3.249,5.211a2.7,2.7,0,0,1,.047,2.785l-.282.489-.739-1.517a2.952,2.952,0,0,0-5.578,1.7l.849,6.082a2.7,2.7,0,0,1-1.089,2.563l-.457.332L48,49.4a2.952,2.952,0,0,0-5.787-.715l-1.7,5.9a2.7,2.7,0,0,1-2.038,1.9l-.547.116.633-1.564a2.952,2.952,0,0,0-5-3.007l-3.952,4.7a2.7,2.7,0,0,1-2.634.906l-.553-.118,1.214-1.171A2.952,2.952,0,0,0,24.3,51.568l-5.522,2.687a2.7,2.7,0,0,1-2.774-.244l-.457-.332,1.586-.576a2.952,2.952,0,0,0-1.108-5.725l-6.138.209a2.7,2.7,0,0,1-2.435-1.351l-.282-.489,1.683.119a2.952,2.952,0,0,0,1.316-5.681L4.479,37.878A2.7,2.7,0,0,1,2.8,35.653l-.059-.562,1.489.793a2.952,2.952,0,0,0,3.513-4.654L3.485,26.808a2.7,2.7,0,0,1-.625-2.714l.174-.537,1.038,1.33a2.952,2.952,0,0,0,5.1-2.823L7.079,16.29a2.7,2.7,0,0,1,.533-2.734l.378-.42L8.4,14.774a2.952,2.952,0,0,0,5.809-.5l.434-6.126a2.7,2.7,0,0,1,1.6-2.281l.516-.23L16.461,7.3a2.952,2.952,0,0,0,2.907,3.466h.021A2.949,2.949,0,0,0,21.974,9.2l2.888-5.42A2.7,2.7,0,0,1,27.25,2.345h.587l-.965,1.429a2.952,2.952,0,0,0,4.262,3.98l4.843-3.776a2.7,2.7,0,0,1,2.764-.338l.516.23-1.431.893A2.952,2.952,0,0,0,40.1,10.133l5.96-1.48a2.7,2.7,0,0,1,2.663.816l.378.42-1.671.234a2.952,2.952,0,0,0-.106,5.83l6.047,1.072a2.7,2.7,0,0,1,2.1,1.828l.165.507-1.618-.465a2.952,2.952,0,0,0-2.468,5.283l5.088,3.439A2.7,2.7,0,0,1,57.814,30.14Z" transform="translate(-0.175)"/>
      </g>
    </g>
    <g id="Group_1111" data-name="Group 1111" transform="translate(29.002 12.43)">
      <g id="Group_1110" data-name="Group 1110">
        <path id="Path_371" data-name="Path 371" class="cls-1" d="M247.235,106h-.062a1.173,1.173,0,0,0,0,2.345h.059a1.173,1.173,0,0,0,0-2.345Z" transform="translate(-246 -105.999)"/>
      </g>
    </g>
    <g id="Group_1113" data-name="Group 1113" transform="translate(12.585 13.023)">
      <g id="Group_1112" data-name="Group 1112">
        <path id="Path_372" data-name="Path 372" class="cls-1" d="M137.578,117.386a17.717,17.717,0,0,0-9.109-6.236,1.173,1.173,0,0,0-.649,2.254,15.245,15.245,0,1,1-8.305-.043,1.173,1.173,0,0,0-.626-2.26,17.592,17.592,0,1,0,22.293,16.954A17.431,17.431,0,0,0,137.578,117.386Z" transform="translate(-106.001 -111.057)"/>
      </g>
    </g>
    <g id="Group_1115" data-name="Group 1115" transform="translate(21.263 21.108)">
      <g id="Group_1114" data-name="Group 1114">
        <path id="Path_373" data-name="Path 373" class="cls-1" d="M188.913,180a8.912,8.912,0,1,0,8.912,8.912A8.922,8.922,0,0,0,188.913,180Zm0,15.479a6.567,6.567,0,1,1,6.567-6.567A6.574,6.574,0,0,1,188.913,195.477Z" transform="translate(-180.001 -179.998)"/>
      </g>
    </g>
  </g>
</svg>
