<svg id="_10" data-name="10" xmlns="http://www.w3.org/2000/svg" viewBox="0 0 60 60">
  <defs>
    <style>
      .cls-1 {
        fill: #000;
      }
    </style>
  </defs>
  <g id="Group_1195" data-name="Group 1195" transform="translate(0 0)">
    <g id="Group_1194" data-name="Group 1194">
      <path id="Path_413" data-name="Path 413" class="cls-1" d="M58.828,13.626H55.313a1.172,1.172,0,0,0-1.125.843l-1.182,4.046H47.839V10.651a1.276,1.276,0,0,1,1.274-1.274h2.6A2.194,2.194,0,0,1,53.9,11.568a1.172,1.172,0,0,0,1.172,1.172h2.51a1.172,1.172,0,0,0,1.172-1.172V8.574A8.584,8.584,0,0,0,50.184,0H40.858a1.172,1.172,0,0,0-1.124.841L39.6,1.3h-.311L38.871.583A1.172,1.172,0,0,0,37.858,0H33.883a1.172,1.172,0,0,0-1.172,1.172V9.351a1.172,1.172,0,0,0,1.172,1.172h3.975a1.172,1.172,0,0,0,1.013-.583l.417-.717h.176l.222,1.513v7.779H35.977v-.487a1.18,1.18,0,0,0-.158-.588l-3.75-6.46a1.172,1.172,0,0,0-2.027,0l-3.75,6.46a1.18,1.18,0,0,0-.158.588v.487H23.484L26.343,1.365A1.172,1.172,0,0,0,25.187,0H10.781A1.172,1.172,0,0,0,9.609,1.172V18.516H6.995L5.812,14.469a1.172,1.172,0,0,0-1.125-.843H1.172A1.172,1.172,0,0,0,0,14.8v44.03A1.172,1.172,0,0,0,1.172,60H58.828A1.172,1.172,0,0,0,60,58.828V14.8A1.172,1.172,0,0,0,58.828,13.626ZM52.32,20.859l-2.534,8.672h-.571V22.967a3.381,3.381,0,0,0-.736-2.108ZM38.614,6.88a1.172,1.172,0,0,0-1.013.583l-.417.717H35.055V2.344h2.129l.417.717a1.172,1.172,0,0,0,1.013.583h1.862A1.172,1.172,0,0,0,41.6,2.8l.135-.458h8.449a6.237,6.237,0,0,1,6.23,6.23V10.4h-.319a4.543,4.543,0,0,0-4.382-3.363h-2.6A3.625,3.625,0,0,0,45.69,9.479H41.87l-.235-1.6a1.172,1.172,0,0,0-1.159-1H38.614Zm7.2,15.033a1.056,1.056,0,0,1,1.055,1.055v6.564H40.654V22.967a1.056,1.056,0,0,1,1.055-1.055ZM42.03,19.569V11.822H45.5v7.746Zm-6.053,1.29h3.069a3.381,3.381,0,0,0-.736,2.108v6.564H35.977ZM31.055,13.9l1.715,2.954H29.34Zm-2.578,5.3h5.156V29.531H28.477Zm-2.344,1.659v8.672H21.649l1.445-8.672ZM16.285,2.344h3.2l-.447,2.813H16.285Zm-4.332,0h1.989V6.328A1.172,1.172,0,0,0,15.114,7.5h4.926A1.172,1.172,0,0,0,21.2,6.512l.663-4.168H23.8L22.462,10.4H11.953Zm0,10.4H22.071l-2.8,16.792H11.953Zm-2.344,8.12v6.6l-1.929-6.6ZM57.656,43.594H40.282a1.172,1.172,0,0,0,0,2.344H57.656v7.031H37.336a1.172,1.172,0,0,0,0,2.344h20.32v2.344H2.344V15.97H3.809L5,20.032l0,.006L8.211,31.032a1.172,1.172,0,0,0,1.125.843H50.664a1.172,1.172,0,0,0,1.125-.843l4.4-15.062h1.465Z" transform="translate(0 0)"/>
    </g>
  </g>
  <g id="Group_1197" data-name="Group 1197" transform="translate(4.688 52.969)">
    <g id="Group_1196" data-name="Group 1196">
      <path id="Path_414" data-name="Path 414" class="cls-1" d="M42,452.343a1.171,1.171,0,1,0,.343.829A1.181,1.181,0,0,0,42,452.343Z" transform="translate(-40 -452)"/>
    </g>
  </g>
  <g id="Group_1199" data-name="Group 1199" transform="translate(4.688 35.626)">
    <g id="Group_1198" data-name="Group 1198">
      <path id="Path_415" data-name="Path 415" class="cls-1" d="M42,304.353a1.171,1.171,0,1,0,.343.828A1.181,1.181,0,0,0,42,304.353Z" transform="translate(-40 -304.01)"/>
    </g>
  </g>
  <g id="Group_1201" data-name="Group 1201" transform="translate(52.969 35.626)">
    <g id="Group_1200" data-name="Group 1200">
      <path id="Path_416" data-name="Path 416" class="cls-1" d="M454,304.353a1.171,1.171,0,1,0,.343.828A1.181,1.181,0,0,0,454,304.353Z" transform="translate(-452 -304.01)"/>
    </g>
  </g>
  <g id="Group_1203" data-name="Group 1203" transform="translate(31.406 52.969)">
    <g id="Group_1202" data-name="Group 1202">
      <path id="Path_417" data-name="Path 417" class="cls-1" d="M270,452.343a1.171,1.171,0,1,0,.343.829A1.181,1.181,0,0,0,270,452.343Z" transform="translate(-268 -452)"/>
    </g>
  </g>
  <g id="Group_1205" data-name="Group 1205" transform="translate(8.261 48.281)">
    <g id="Group_1204" data-name="Group 1204">
      <path id="Path_418" data-name="Path 418" class="cls-1" d="M88.363,412h-16.7a1.172,1.172,0,0,0,0,2.344h16.7a1.172,1.172,0,0,0,0-2.344Z" transform="translate(-70.491 -412)"/>
    </g>
  </g>
  <g id="Group_1207" data-name="Group 1207" transform="translate(4.688 40.049)">
    <g id="Group_1206" data-name="Group 1206">
      <path id="Path_419" data-name="Path 419" class="cls-1" d="M54.044,341.751H41.172a1.172,1.172,0,0,0,0,2.344H54.044a1.172,1.172,0,0,0,0-2.344Z" transform="translate(-40 -341.751)"/>
    </g>
  </g>
  <g id="Group_1209" data-name="Group 1209" transform="translate(34.019 43.594)">
    <g id="Group_1208" data-name="Group 1208">
      <path id="Path_420" data-name="Path 420" class="cls-1" d="M291.559,372h-.1a1.172,1.172,0,0,0,0,2.344h.1a1.172,1.172,0,0,0,0-2.344Z" transform="translate(-290.292 -372)"/>
    </g>
  </g>
</svg>
