<svg xmlns="http://www.w3.org/2000/svg" viewBox="0 0 60 60">
  <defs>
    <style>
      .cls-1 {
        fill: #000;
      }
    </style>
  </defs>
  <g id="_02" data-name="02" transform="translate(-0.001)">
    <g id="Group_1117" data-name="Group 1117" transform="translate(0.002)">
      <g id="Group_1116" data-name="Group 1116">
        <path id="Path_374" data-name="Path 374" class="cls-1" d="M58.968,1.033a3.529,3.529,0,0,0-5.677,4.019L51.874,6.47a6.643,6.643,0,0,0-7.825.188L16.636,15.878l-.458-1.629.49-.165a1.172,1.172,0,0,0-.747-2.222L12.829,12.9a1.172,1.172,0,1,0,.747,2.222L13.954,15l.458,1.629-2.058.692A7.24,7.24,0,0,0,7.976,21.4l-.928,2.234L.8,25.736a1.172,1.172,0,1,0,.746,2.222L8.12,25.75a1.173,1.173,0,0,0,.331-.111l16.317-5.481,6.709,6.71-1.2,1.2a1.172,1.172,0,1,0,1.657,1.657l1.2-1.2,6.709,6.709-5.477,16.3a1.177,1.177,0,0,0-.117.348l-2.207,6.569a1.172,1.172,0,1,0,2.222.746l2.1-6.248,2.234-.928a7.239,7.239,0,0,0,4.084-4.378l.69-2.05,1.644.462-.127.378a1.172,1.172,0,1,0,2.221.747l1.04-3.092a1.172,1.172,0,1,0-2.221-.747l-.165.49-1.644-.462,3.109-9.242a1.172,1.172,0,1,0-2.221-.747L40.462,46.9A4.9,4.9,0,0,1,37.7,49.861L37.355,50,47.926,18.534c.055,0,.109,0,.164,0a6.663,6.663,0,0,0,2.017-.314l-2.191,6.514a1.172,1.172,0,1,0,2.221.747l3.2-9.509c0-.007,0-.014.006-.021a6.643,6.643,0,0,0,.19-7.828l1.419-1.419a3.527,3.527,0,0,0,4.018-5.675ZM10,22.647l.143-.344A4.9,4.9,0,0,1,13.1,19.54L41.772,9.9a6.646,6.646,0,0,0-.312,2.015c0,.055,0,.11,0,.165ZM40.678,32.753l-5.886-5.886,1.4-1.4a1.172,1.172,0,1,0-1.657-1.657l-1.4,1.4-5.886-5.886L41.938,14.39a6.642,6.642,0,0,0,3.675,3.671ZM51.12,14.942a4.284,4.284,0,1,1,0-6.061A4.291,4.291,0,0,1,51.12,14.942ZM57.311,4.365a1.184,1.184,0,1,1,.347-.837A1.185,1.185,0,0,1,57.311,4.365Z" transform="translate(-0.002 0)"/>
      </g>
    </g>
    <g id="Group_1119" data-name="Group 1119" transform="translate(46.321 28.5)">
      <g id="Group_1118" data-name="Group 1118">
        <path id="Path_375" data-name="Path 375" class="cls-1" d="M397.261,243.542a1.171,1.171,0,1,0,.343.829A1.181,1.181,0,0,0,397.261,243.542Z" transform="translate(-395.261 -243.199)"/>
      </g>
    </g>
    <g id="Group_1121" data-name="Group 1121" transform="translate(3.013 29.53)">
      <g id="Group_1120" data-name="Group 1120">
        <path id="Path_376" data-name="Path 376" class="cls-1" d="M28.007,252.873,28,252.841a1.172,1.172,0,1,0-2.257.633l.012.042a1.172,1.172,0,1,0,2.254-.642Z" transform="translate(-25.697 -251.986)"/>
      </g>
    </g>
    <g id="Group_1123" data-name="Group 1123" transform="translate(4.493 33.754)">
      <g id="Group_1122" data-name="Group 1122">
        <path id="Path_377" data-name="Path 377" class="cls-1" d="M63.108,308.837a35,35,0,0,1-22.524-20.086,1.172,1.172,0,0,0-2.16.911,37.575,37.575,0,0,0,24.027,21.425,1.172,1.172,0,0,0,.657-2.25Z" transform="translate(-38.331 -288.034)"/>
      </g>
    </g>
  </g>
</svg>
