<svg xmlns="http://www.w3.org/2000/svg" viewBox="0 0 54.775 60">
  <defs>
    <style>
      .cls-1 {
        fill: #000;
      }
    </style>
  </defs>
  <g id="_03" data-name="03" transform="translate(-22.291 0.001)">
    <g id="Group_1125" data-name="Group 1125" transform="translate(32.931 39.013)">
      <g id="Group_1124" data-name="Group 1124" transform="translate(0)">
        <path id="Path_378" data-name="Path 378" class="cls-1" d="M115.089,333.257a1.171,1.171,0,1,0,.343.829A1.181,1.181,0,0,0,115.089,333.257Z" transform="translate(-113.089 -332.914)"/>
      </g>
    </g>
    <g id="Group_1127" data-name="Group 1127" transform="translate(22.291 -0.001)">
      <g id="Group_1126" data-name="Group 1126" transform="translate(0 0)">
        <path id="Path_379" data-name="Path 379" class="cls-1" d="M76.794,16.3a1.172,1.172,0,0,0-1.433-.843l-9.848,2.584-1.4-5.76L73.545,9.89a1.172,1.172,0,0,0,.844-1.44A11.393,11.393,0,0,0,59.769.6,15.3,15.3,0,0,0,49.34,15.812l.142,3.093A9.22,9.22,0,0,1,46.8,25.834L35.912,36.719a1.172,1.172,0,0,0,1.657,1.657L48.455,27.491A11.568,11.568,0,0,0,51.824,18.8L51.681,15.7A13.01,13.01,0,0,1,60.513,2.82,9.055,9.055,0,0,1,71.745,7.928l-9.337,2.363a1.172,1.172,0,0,0-.851,1.414L65.6,28.278a37.08,37.08,0,0,0-14.019,8.778L32.29,56.345A4.487,4.487,0,0,1,25.945,50l6.086-6.086a1.172,1.172,0,0,0-1.657-1.657l-6.086,6.086A6.83,6.83,0,0,0,33.948,58L53.236,38.713a34.711,34.711,0,0,1,14.107-8.544,1.172,1.172,0,0,0,.788-1.4l-.313-1.282,2.751-.7A8.625,8.625,0,0,0,76.794,16.3Zm-2.953,5.341a6.24,6.24,0,0,1-3.85,2.882l-2.727.7-1.195-4.9,8.641-2.268A6.237,6.237,0,0,1,73.841,21.637Z" transform="translate(-22.291 0.001)"/>
      </g>
    </g>
    <g id="Group_1129" data-name="Group 1129" transform="translate(26.057 50.112)">
      <g id="Group_1128" data-name="Group 1128" transform="translate(0)">
        <path id="Path_380" data-name="Path 380" class="cls-1" d="M59.65,428.52a3.057,3.057,0,1,0,0,4.325h0A3.062,3.062,0,0,0,59.65,428.52Zm-1.657,2.667a.714.714,0,1,1,0-1.01A.715.715,0,0,1,57.992,431.187Z" transform="translate(-54.431 -427.625)"/>
      </g>
    </g>
    <g id="Group_1131" data-name="Group 1131" transform="translate(50.511 29.428)">
      <g id="Group_1130" data-name="Group 1130">
        <path id="Path_381" data-name="Path 381" class="cls-1" d="M265.1,251.471a1.174,1.174,0,1,0,.342.829A1.178,1.178,0,0,0,265.1,251.471Z" transform="translate(-263.103 -251.128)"/>
      </g>
    </g>
    <g id="Group_1133" data-name="Group 1133" transform="translate(32.683 32.475)">
      <g id="Group_1132" data-name="Group 1132" transform="translate(0)">
        <path id="Path_382" data-name="Path 382" class="cls-1" d="M127.752,277.468a1.172,1.172,0,0,0-1.657,0l-14.78,14.78a1.172,1.172,0,0,0,1.657,1.657l14.78-14.78A1.172,1.172,0,0,0,127.752,277.468Z" transform="translate(-110.971 -277.125)"/>
      </g>
    </g>
    <g id="Group_1135" data-name="Group 1135" transform="translate(53.41 12.902)">
      <g id="Group_1134" data-name="Group 1134" transform="translate(0)">
        <path id="Path_383" data-name="Path 383" class="cls-1" d="M296.695,120.38l-2.374-9.392a1.172,1.172,0,0,0-1.417-.851l-4.174,1.031a1.172,1.172,0,0,0-.857,1.415l2.317,9.5a1.172,1.172,0,0,0,1.443.854l4.232-1.14A1.172,1.172,0,0,0,296.695,120.38Zm-5.66-4.717-.609-2.5,1.909-.471.644,2.546Zm1.146,4.7-.591-2.423,1.962-.429.588,2.324Z" transform="translate(-287.838 -110.103)"/>
      </g>
    </g>
    <g id="Group_1137" data-name="Group 1137" transform="translate(59.247 35.932)">
      <g id="Group_1136" data-name="Group 1136" transform="translate(0)">
        <path id="Path_384" data-name="Path 384" class="cls-1" d="M353.471,310.839l-7.031-4.059a1.172,1.172,0,0,0-1.172,0l-7.031,4.059a1.172,1.172,0,0,0-.586,1.015v8.119a1.172,1.172,0,0,0,.586,1.015l7.031,4.059a1.172,1.172,0,0,0,1.172,0l7.031-4.059a1.172,1.172,0,0,0,.586-1.015v-8.119A1.172,1.172,0,0,0,353.471,310.839Zm-1.758,8.457-5.859,3.383-5.859-3.383v-6.766l5.859-3.383,5.859,3.383Z" transform="translate(-337.651 -306.623)"/>
      </g>
    </g>
    <g id="Group_1139" data-name="Group 1139" transform="translate(63.7 41.472)">
      <g id="Group_1138" data-name="Group 1138">
        <path id="Path_385" data-name="Path 385" class="cls-1" d="M379.4,353.9a3.75,3.75,0,1,0,3.75,3.75A3.754,3.754,0,0,0,379.4,353.9Zm0,5.156a1.406,1.406,0,1,1,1.406-1.406A1.408,1.408,0,0,1,379.4,359.06Z" transform="translate(-375.651 -353.904)"/>
      </g>
    </g>
  </g>
</svg>
