<svg xmlns="http://www.w3.org/2000/svg" viewBox="0 0 38.203 60">
  <defs>
    <style>
      .cls-1 {
        fill: #fff;
      }
    </style>
  </defs>
  <g id="_04" data-name="04" transform="translate(-93)">
    <g id="Group_1141" data-name="Group 1141" transform="translate(93)">
      <g id="Group_1140" data-name="Group 1140">
        <path id="Path_386" data-name="Path 386" class="cls-1" d="M130.031,2.813H123.7V2.549A2.552,2.552,0,0,0,121.154,0h-1.934a2.552,2.552,0,0,0-2.549,2.549v.264h-6.328a1.172,1.172,0,0,0,0,2.344h6.328V17.344h-.088a2.258,2.258,0,0,0-2.256,2.256v.088H101.438A8.447,8.447,0,0,0,93,28.125V51.563A8.447,8.447,0,0,0,101.438,60h16.4a9.622,9.622,0,0,0,9.611-9.609,1.172,1.172,0,0,0-1.172-1.172H118.7a1.172,1.172,0,0,0,0,2.344h6.312a7.279,7.279,0,0,1-7.172,6.094h-16.4a6.1,6.1,0,0,1-6.094-6.094V28.125a6.1,6.1,0,0,1,6.094-6.094h12.891v6.094h-9.375a3.52,3.52,0,0,0-3.516,3.516V48.047a3.52,3.52,0,0,0,3.516,3.516h4.1a1.172,1.172,0,0,0,0-2.344h-4.1a1.173,1.173,0,0,1-1.172-1.172V31.641a1.173,1.173,0,0,1,1.172-1.172h9.375v.088a2.258,2.258,0,0,0,2.256,2.256h.088v4.219h-.7A1.172,1.172,0,0,0,114.8,38.2v4.688a1.172,1.172,0,0,0,1.172,1.172h8.438a1.172,1.172,0,0,0,1.172-1.172V38.2a1.172,1.172,0,0,0-1.172-1.172h-.7V32.813h.088a2.258,2.258,0,0,0,2.256-2.256V19.6a2.258,2.258,0,0,0-2.256-2.256H123.7V5.156h6.328a1.172,1.172,0,0,0,0-2.344Zm-11.016-.264a.205.205,0,0,1,.205-.205h1.934a.205.205,0,0,1,.205.205V5.508h-2.344Zm0,5.3h2.344v9.492h-2.344Zm4.219,33.867h-6.094V39.375h6.094Zm-4.219-4.687V32.813h2.344v4.219Zm4.688-6.562h-7.031V19.688H123.7Z" transform="translate(-93)"/>
      </g>
    </g>
    <g id="Group_1143" data-name="Group 1143" transform="translate(112.766 49.219)">
      <g id="Group_1142" data-name="Group 1142">
        <path id="Path_387" data-name="Path 387" class="cls-1" d="M263.67,420.343a1.171,1.171,0,1,0,.343.829A1.181,1.181,0,0,0,263.67,420.343Z" transform="translate(-261.67 -420)"/>
      </g>
    </g>
    <g id="Group_1145" data-name="Group 1145" transform="translate(97.688 32.227)">
      <g id="Group_1144" data-name="Group 1144">
        <path id="Path_388" data-name="Path 388" class="cls-1" d="M134.172,275A1.172,1.172,0,0,0,133,276.172v8.438a1.172,1.172,0,0,0,2.344,0v-8.437A1.172,1.172,0,0,0,134.172,275Z" transform="translate(-133 -275)"/>
      </g>
    </g>
    <g id="Group_1147" data-name="Group 1147" transform="translate(97.688 28.001)">
      <g id="Group_1146" data-name="Group 1146">
        <path id="Path_389" data-name="Path 389" class="cls-1" d="M135,239.282a1.172,1.172,0,1,0,.343.83A1.179,1.179,0,0,0,135,239.282Z" transform="translate(-133 -238.94)"/>
      </g>
    </g>
  </g>
</svg>
