<svg id="_05" data-name="05" xmlns="http://www.w3.org/2000/svg" viewBox="0 0 60 60">
  <defs>
    <style>
      .cls-1 {
        fill: #000;
      }
    </style>
  </defs>
  <g id="Group_1149" data-name="Group 1149">
    <g id="Group_1148" data-name="Group 1148">
      <path id="Path_390" data-name="Path 390" class="cls-1" d="M51.213,8.787a30,30,0,1,0-25.552,50.9A1.172,1.172,0,1,0,26,57.369,27.784,27.784,0,0,1,2.344,30a27.493,27.493,0,0,1,4.48-15.073l.014.016a15.4,15.4,0,0,0,5.5,3.808,1.172,1.172,0,0,0,.882-2.172,13.041,13.041,0,0,1-4.655-3.225l-.345-.374A27.617,27.617,0,0,1,49.023,9.944l-.065.184a9.847,9.847,0,0,1-4.524,5.321A1.172,1.172,0,1,0,45.566,17.5a12.186,12.186,0,0,0,5.241-5.7A27.54,27.54,0,0,1,57.656,30a27.825,27.825,0,0,1-18.27,26.016A10.187,10.187,0,0,0,38.062,48.4a1.172,1.172,0,0,0-1.984,1.248,7.845,7.845,0,0,1,.869,6.445l-.223.738a27.243,27.243,0,0,1-2.753.543,1.172,1.172,0,0,0,.165,2.332,1.189,1.189,0,0,0,.168-.012A30,30,0,0,0,51.213,8.787Z"/>
    </g>
  </g>
  <g id="Group_1151" data-name="Group 1151" transform="translate(28.812 57.656)">
    <g id="Group_1150" data-name="Group 1150">
      <path id="Path_391" data-name="Path 391" class="cls-1" d="M247.072,492h-.034a1.172,1.172,0,0,0,0,2.344h.034a1.172,1.172,0,0,0,0-2.344Z" transform="translate(-245.866 -492)"/>
    </g>
  </g>
  <g id="Group_1153" data-name="Group 1153" transform="translate(44.904 20.643)">
    <g id="Group_1152" data-name="Group 1152">
      <path id="Path_392" data-name="Path 392" class="cls-1" d="M390.585,176.9a1.172,1.172,0,1,0-2.187.842,21.592,21.592,0,0,1-4.875,23.011,1.172,1.172,0,1,0,1.657,1.657A23.938,23.938,0,0,0,390.585,176.9Z" transform="translate(-383.179 -176.153)"/>
    </g>
  </g>
  <g id="Group_1155" data-name="Group 1155" transform="translate(6.091 20.099)">
    <g id="Group_1154" data-name="Group 1154">
      <path id="Path_393" data-name="Path 393" class="cls-1" d="M60.637,196.659a21.505,21.505,0,0,1-4.669-23.526,1.172,1.172,0,1,0-2.164-.9,23.913,23.913,0,0,0,5.176,26.082,1.172,1.172,0,1,0,1.657-1.657Z" transform="translate(-51.974 -171.511)"/>
    </g>
  </g>
  <g id="Group_1157" data-name="Group 1157" transform="translate(12.752 6.094)">
    <g id="Group_1156" data-name="Group 1156">
      <path id="Path_394" data-name="Path 394" class="cls-1" d="M134.639,53.588a23.944,23.944,0,0,0-25.474,5.419,1.172,1.172,0,1,0,1.657,1.657A21.6,21.6,0,0,1,133.8,55.777a1.172,1.172,0,0,0,.839-2.188Z" transform="translate(-108.821 -52.006)"/>
    </g>
  </g>
  <g id="Group_1159" data-name="Group 1159" transform="translate(18.984 18.984)">
    <g id="Group_1158" data-name="Group 1158">
      <path id="Path_395" data-name="Path 395" class="cls-1" d="M173.016,162A11.028,11.028,0,0,0,162,173.016a1.172,1.172,0,0,0,2.344,0,8.672,8.672,0,1,1,8.672,8.672,1.172,1.172,0,0,0,0,2.344,11.016,11.016,0,0,0,0-22.031Z" transform="translate(-162 -162)"/>
    </g>
  </g>
  <g id="Group_1161" data-name="Group 1161" transform="translate(24.141 24.141)">
    <g id="Group_1160" data-name="Group 1160">
      <path id="Path_396" data-name="Path 396" class="cls-1" d="M216.547,210.688a1.172,1.172,0,0,0-1.172,1.172,3.516,3.516,0,1,1-3.516-3.516,1.172,1.172,0,0,0,0-2.344,5.859,5.859,0,1,0,5.859,5.859A1.172,1.172,0,0,0,216.547,210.688Z" transform="translate(-206 -206)"/>
    </g>
  </g>
  <g id="Group_1163" data-name="Group 1163" transform="translate(12.181 17.061)">
    <g id="Group_1162" data-name="Group 1162">
      <path id="Path_397" data-name="Path 397" class="cls-1" d="M110.825,145.934a1.172,1.172,0,0,0-1.657,0,17.8,17.8,0,0,0-2.751,21.647,1.172,1.172,0,0,0,2.018-1.192,15.459,15.459,0,0,1,2.39-18.8A1.172,1.172,0,0,0,110.825,145.934Z" transform="translate(-103.944 -145.591)"/>
    </g>
  </g>
  <g id="Group_1165" data-name="Group 1165" transform="translate(20.372 17.061)">
    <g id="Group_1164" data-name="Group 1164">
      <path id="Path_398" data-name="Path 398" class="cls-1" d="M196.067,145.934a1.172,1.172,0,1,0-1.657,1.657,15.471,15.471,0,0,1-18.8,24.266,1.172,1.172,0,1,0-1.192,2.018,17.815,17.815,0,0,0,21.647-27.941Z" transform="translate(-173.844 -145.591)"/>
    </g>
  </g>
  <g id="Group_1167" data-name="Group 1167" transform="translate(17.049 40.583)">
    <g id="Group_1166" data-name="Group 1166">
      <path id="Path_399" data-name="Path 399" class="cls-1" d="M147.5,346.662l-.012-.012a1.172,1.172,0,1,0-1.657,1.657l.012.012a1.172,1.172,0,1,0,1.657-1.657Z" transform="translate(-145.488 -346.307)"/>
    </g>
  </g>
</svg>
