<svg xmlns="http://www.w3.org/2000/svg" viewBox="0 0 60.006 60">
  <defs>
    <style>
      .cls-1 {
        fill: #000;
      }
    </style>
  </defs>
  <g id="_06" data-name="06" transform="translate(0 -0.027)">
    <g id="Group_1227" data-name="Group 1227" transform="translate(0 10.107)">
      <g id="Group_1226" data-name="Group 1226" transform="translate(0)">
        <path id="Path_429" data-name="Path 429" class="cls-1" d="M59.815,101.212,50.205,86.559a1.172,1.172,0,0,0-.98-.529h-38.4a1.172,1.172,0,0,0-.979.527L.224,101.167a1.172,1.172,0,0,0,.067,1.46l4.878,5.57a1.172,1.172,0,1,0,1.763-1.544l-3.176-3.626H19.52l7.921,27.044L18.49,119.85a1.172,1.172,0,1,0-1.763,1.544l12.4,14.157a1.171,1.171,0,0,0,1.763,0l13.2-15.076a1.172,1.172,0,1,0-1.763-1.544l-9.752,11.138,7.921-27.042H56.251l-7.288,8.324a1.172,1.172,0,1,0,1.763,1.544l8.99-10.267A1.172,1.172,0,0,0,59.815,101.212Zm-56.466-.529,7.476-11.347,7.442,11.347ZM13,88.374h14.84l-7.42,11.315Zm17.01.965,7.439,11.344H22.568Zm0,41.154-8.045-27.466h16.09Zm9.609-30.775L32.177,88.374H47.056Zm2.17.965,7.439-11.344,7.439,11.344Z" transform="translate(0 -86.03)"/>
      </g>
    </g>
    <g id="Group_1229" data-name="Group 1229" transform="translate(3.942 31.696)">
      <g id="Group_1228" data-name="Group 1228">
        <path id="Path_430" data-name="Path 430" class="cls-1" d="M48.116,276.894a5.489,5.489,0,0,1-5.482-5.482,1.172,1.172,0,1,0-2.344,0,5.489,5.489,0,0,1-5.482,5.482,1.172,1.172,0,0,0,0,2.344,5.489,5.489,0,0,1,5.482,5.482,1.172,1.172,0,0,0,2.344,0,5.489,5.489,0,0,1,5.482-5.482,1.172,1.172,0,0,0,0-2.344ZM41.462,280.6a7.888,7.888,0,0,0-2.539-2.539,7.886,7.886,0,0,0,2.539-2.539A7.888,7.888,0,0,0,44,278.066,7.888,7.888,0,0,0,41.462,280.6Z" transform="translate(-33.636 -270.24)"/>
      </g>
    </g>
    <g id="Group_1231" data-name="Group 1231" transform="translate(48.288 0.027)">
      <g id="Group_1230" data-name="Group 1230" transform="translate(0 0)">
        <path id="Path_431" data-name="Path 431" class="cls-1" d="M422.557,4.715A3.52,3.52,0,0,1,419.041,1.2a1.172,1.172,0,1,0-2.344,0,3.52,3.52,0,0,1-3.516,3.516,1.172,1.172,0,1,0,0,2.344,3.52,3.52,0,0,1,3.516,3.516,1.172,1.172,0,1,0,2.344,0,3.52,3.52,0,0,1,3.516-3.516,1.172,1.172,0,0,0,0-2.344Zm-4.688,2.347a5.911,5.911,0,0,0-1.176-1.176,5.911,5.911,0,0,0,1.176-1.176,5.91,5.91,0,0,0,1.176,1.176A5.9,5.9,0,0,0,417.869,7.062Z" transform="translate(-412.01 -0.027)"/>
      </g>
    </g>
    <g id="Group_1233" data-name="Group 1233" transform="translate(45.206 38.986)">
      <g id="Group_1232" data-name="Group 1232">
        <path id="Path_432" data-name="Path 432" class="cls-1" d="M387.716,332.784a1.171,1.171,0,1,0,.344.828A1.175,1.175,0,0,0,387.716,332.784Z" transform="translate(-385.716 -332.441)"/>
      </g>
    </g>
  </g>
</svg>
