<svg xmlns="http://www.w3.org/2000/svg" viewBox="0 0 60 60.006">
  <defs>
    <style>
      .cls-1 {
        fill: #fff;
      }
    </style>
  </defs>
  <g id="_07" data-name="07" transform="translate(-44 -8.6)">
    <path id="Path_2328" data-name="Path 2328" class="cls-1" d="M273.043,169.043A1.043,1.043,0,0,0,272,168h-9.757a1.043,1.043,0,1,0,0,2.087H272A1.043,1.043,0,0,0,273.043,169.043Z" transform="translate(-188.87 -138.609)"/>
    <circle id="Ellipse_37" data-name="Ellipse 37" class="cls-1" cx="1.043" cy="1.043" r="1.043" transform="translate(65.365 18.957)"/>
    <circle id="Ellipse_38" data-name="Ellipse 38" class="cls-1" cx="1.043" cy="1.043" r="1.043" transform="translate(97.739 18.957)"/>
    <path id="Path_2329" data-name="Path 2329" class="cls-1" d="M95.423,58.687h0a4.423,4.423,0,0,0,4.4-4.42V35.634a6.17,6.17,0,0,1,1.774-4.376,8.116,8.116,0,0,0,2.4-5.78V13.817A5.217,5.217,0,0,0,98.783,8.6H64.322a3.13,3.13,0,0,0-2.939,2.087H60.148a3.13,3.13,0,0,0-3.13,3.13v1.043H55.974a3.13,3.13,0,0,0-2.939,2.087H47.23a3.19,3.19,0,0,0-3.2,3.183,3.13,3.13,0,0,0,3.13,3.077h5.877a3.13,3.13,0,0,0,2.939,2.087h1.043v1.043a3.13,3.13,0,0,0,3.13,3.13h1.6l4.826,5.791a1.3,1.3,0,0,0,1,.47H72.7v3.13a7.3,7.3,0,0,0,7.3,7.3h3.008a9.4,9.4,0,0,1-.869,2.78l-1.672,3.346A4.42,4.42,0,0,0,84.42,58.68h4.971v.978a3.13,3.13,0,0,0,3.13,3.13h8.348a1.043,1.043,0,0,1,1.043,1.043v1.643a1.043,1.043,0,0,1-1.043,1.043H78.124a1.043,1.043,0,0,1-1.043-1.043v-3.13a3.13,3.13,0,0,0-3.13-3.13H64.559v-2.87a1.3,1.3,0,0,0-1.3-1.3H60.637a9.644,9.644,0,0,1-6.82-2.825l-.306-.306H49.168a1.3,1.3,0,0,0-1.3,1.3v1.826h-2.82a1.043,1.043,0,1,0,0,2.087h2.817v6.261H45.043a1.043,1.043,0,1,0,0,2.087h2.817V67.3a1.3,1.3,0,0,0,1.3,1.3H53.51l.305-.305a9.644,9.644,0,0,1,6.819-2.825h2.617a1.3,1.3,0,0,0,1.3-1.3V61.3h9.391a1.043,1.043,0,0,1,1.043,1.043v3.13a3.13,3.13,0,0,0,3.13,3.13H100.87a3.13,3.13,0,0,0,3.13-3.13V63.839a3.13,3.13,0,0,0-3.13-3.13H92.522a1.043,1.043,0,0,1-1.043-1.043v-.978ZM52.843,21.122H47.159a1.043,1.043,0,0,1,0-2.087h5.684Zm4.174,2.087H55.974a1.043,1.043,0,0,1-1.043-1.043V17.991a1.043,1.043,0,0,1,1.043-1.043h1.043Zm4.174,4.174H60.148A1.043,1.043,0,0,1,59.1,26.339V13.817a1.043,1.043,0,0,1,1.043-1.043h1.043ZM52.037,66.526H49.95V54h2.087ZM62.472,63.4H60.637a11.636,11.636,0,0,0-6.514,1.984V55.151a11.639,11.639,0,0,0,6.514,1.984h1.834Zm35.267-10.97H91.691L94.43,37.817h3.309ZM63.278,11.73a1.043,1.043,0,0,1,1.043-1.043H98.783a3.13,3.13,0,0,1,3.13,3.13v1.043H92.522a1.043,1.043,0,1,0,0,2.087h1.043v2.087H71.626V16.948H88.348a1.043,1.043,0,1,0,0-2.087H63.278Zm6.261,21.913V27.383H87.3v6.261ZM80,44.078a5.217,5.217,0,0,1-5.217-5.217V35.73H83.13v8.348Zm4.007,5.8a11.546,11.546,0,0,0,1.21-5.134V35.73h2.87a1.3,1.3,0,0,0,1.3-1.3V26.6a1.3,1.3,0,0,0-1.3-1.3H68.757a1.3,1.3,0,0,0-1.3,1.3v6.457l-4.174-5.009v-11.1h6.261v2.87a1.3,1.3,0,0,0,1.3,1.3h23.5a1.3,1.3,0,0,0,1.3-1.3v-2.87h6.261v8.444a6.17,6.17,0,0,1-1.774,4.376,8.116,8.116,0,0,0-2.4,5.783v.179H93.782A1.3,1.3,0,0,0,92.5,36.795L89.57,52.426H82.739ZM84.42,56.6a2.328,2.328,0,0,1-2.309-2.087h15.6A2.328,2.328,0,0,1,95.406,56.6Z"/>
  </g>
</svg>
