<svg xmlns="http://www.w3.org/2000/svg" viewBox="0 0 70 70">
  <defs>
    <style>
      .cls-1 {
        fill: #000;
      }
    </style>
  </defs>
  <g id="_08" data-name="08" transform="translate(0 0)">
    <g id="Group_1235" data-name="Group 1235" transform="translate(0 0)">
      <g id="Group_1234" data-name="Group 1234" transform="translate(0 0)">
        <path id="Path_433" data-name="Path 433" class="cls-1" d="M69.856.56A1.105,1.105,0,0,0,68.35.143L59.508,5.151a1.105,1.105,0,0,0-.561.962v8.138h-1.43v-.81a2.874,2.874,0,1,0-5.747,0v3.832a2.874,2.874,0,1,0,5.747,0v-.81h1.43v2.914a2.876,2.876,0,0,0-2.653,2.862V47.585a2.876,2.876,0,0,0,2.2,2.791,6.883,6.883,0,0,1-6.867,6.549H45.492V19.708a2.877,2.877,0,0,0-2.874-2.874H32.8V15.178A2.877,2.877,0,0,0,29.93,12.3H15.562a2.877,2.877,0,0,0-2.874,2.874v1.656H2.874A2.877,2.877,0,0,0,0,19.708V63.559a2.875,2.875,0,0,0,2.75,2.867v.7A2.877,2.877,0,0,0,5.623,70H11.37a2.877,2.877,0,0,0,2.874-2.874v-.694h1.451a1.105,1.105,0,1,0,0-2.21H2.874a.664.664,0,0,1-.663-.663V32.392H30.726a1.105,1.105,0,1,0,0-2.21H2.211V19.708a.664.664,0,0,1,.663-.663H42.618a.664.664,0,0,1,.663.663V30.182H34.411a1.105,1.105,0,0,0,0,2.21h8.871V56.925H39.187a3.905,3.905,0,1,0,0,2.21h4.094v4.423a.664.664,0,0,1-.663.663H19.232a1.105,1.105,0,1,0,0,2.21H31.248v.694A2.877,2.877,0,0,0,34.122,70h5.747a2.877,2.877,0,0,0,2.874-2.874v-.7a2.875,2.875,0,0,0,2.75-2.867V59.135H51.63a9.1,9.1,0,0,0,9.077-8.755,2.877,2.877,0,0,0,2.219-2.8V32.233a1.105,1.105,0,0,0-2.21,0v7.113h-2.21V22.238a.664.664,0,0,1,.663-.663h.884a.664.664,0,0,1,.663.663V28.7a1.105,1.105,0,1,0,2.21,0V22.238a2.878,2.878,0,0,0-1.768-2.652V16.461h.663a1.105,1.105,0,0,0,0-2.21h-.663V6.757l8.281-4.69A1.105,1.105,0,0,0,69.856.56ZM55.306,17.272a.663.663,0,0,1-1.326,0V13.44a.663.663,0,0,1,1.326,0ZM4.96,66.432h7.073v.694a.664.664,0,0,1-.663.663H5.623a.664.664,0,0,1-.663-.663ZM30.593,16.2H14.9v-1.02a.664.664,0,0,1,.663-.663H29.93a.664.664,0,0,1,.663.663V16.2Zm4.849,42.938h1.282a1.695,1.695,0,1,1,0-2.21H35.442a1.105,1.105,0,1,0,0,2.21Zm5.09,7.991a.664.664,0,0,1-.663.663H34.122a.664.664,0,0,1-.663-.663v-.694h7.073v.694Zm17.974-25.57h2.21v6.029a.664.664,0,0,1-.663.663h-.884a.664.664,0,0,1-.663-.663V41.556Z" transform="translate(0 0)"/>
        <path id="Path_434" data-name="Path 434" class="cls-1" d="M226.623,155.633a3.905,3.905,0,1,0-3.905,3.905A3.91,3.91,0,0,0,226.623,155.633Zm-5.6,0a1.695,1.695,0,1,1,1.695,1.695A1.7,1.7,0,0,1,221.023,155.633Z" transform="translate(-188.897 -130.984)"/>
        <path id="Path_435" data-name="Path 435" class="cls-1" d="M137.244,155.633a3.905,3.905,0,1,0,3.905-3.905A3.91,3.91,0,0,0,137.244,155.633Zm5.6,0a1.695,1.695,0,1,1-1.695-1.695A1.7,1.7,0,0,1,142.844,155.633Z" transform="translate(-118.48 -130.984)"/>
        <path id="Path_436" data-name="Path 436" class="cls-1" d="M55.678,155.633a3.905,3.905,0,1,0,3.905-3.905A3.91,3.91,0,0,0,55.678,155.633Zm5.6,0a1.695,1.695,0,1,1-1.695-1.695A1.7,1.7,0,0,1,61.278,155.633Z" transform="translate(-48.066 -130.984)"/>
        <path id="Path_437" data-name="Path 437" class="cls-1" d="M59.329,278.314H76.4a1.105,1.105,0,0,0,0-2.21H59.329a1.105,1.105,0,0,0,0,2.21Z" transform="translate(-50.264 -238.355)"/>
        <path id="Path_438" data-name="Path 438" class="cls-1" d="M59.329,312.5H76.4a1.105,1.105,0,0,0,0-2.21H59.329a1.105,1.105,0,0,0,0,2.21Z" transform="translate(-50.264 -267.868)"/>
        <path id="Path_439" data-name="Path 439" class="cls-1" d="M59.329,346.687H76.4a1.105,1.105,0,1,0,0-2.21H59.329a1.105,1.105,0,1,0,0,2.21Z" transform="translate(-50.264 -297.381)"/>
        <path id="Path_440" data-name="Path 440" class="cls-1" d="M59.329,380.874H76.4a1.105,1.105,0,1,0,0-2.21H59.329a1.105,1.105,0,1,0,0,2.21Z" transform="translate(-50.264 -326.894)"/>
        <path id="Path_441" data-name="Path 441" class="cls-1" d="M59.329,415.063H76.4a1.105,1.105,0,0,0,0-2.211H59.329a1.105,1.105,0,0,0,0,2.211Z" transform="translate(-50.264 -356.407)"/>
        <path id="Path_442" data-name="Path 442" class="cls-1" d="M237.7,363.782h3.979a1.105,1.105,0,1,0,0-2.21H237.7a1.105,1.105,0,1,0,0,2.21Z" transform="translate(-204.251 -312.138)"/>
        <path id="Path_443" data-name="Path 443" class="cls-1" d="M241.682,327.384H237.7a1.105,1.105,0,0,0,0,2.211h3.979a1.105,1.105,0,0,0,0-2.211Z" transform="translate(-204.251 -282.625)"/>
        <path id="Path_444" data-name="Path 444" class="cls-1" d="M241.682,293.2H237.7a1.105,1.105,0,0,0,0,2.211h3.979a1.105,1.105,0,0,0,0-2.211Z" transform="translate(-204.251 -253.112)"/>
      </g>
    </g>
  </g>
</svg>
