<svg xmlns="http://www.w3.org/2000/svg" viewBox="0 0 64 100"><defs><style>.a{fill:#fff;}</style></defs><path class="a" d="M4124.051,2307a2.643,2.643,0,0,1-2.644-2.637v-14.449a13.14,13.14,0,0,1,7.464-11.8s0,0,0,0l.007,0,.008,0c.176-.085.372-.173.586-.262.1-.043.2-.082.3-.122s.212-.082.317-.12l2.323-.831,6.984-2.5v-1.422a26.691,26.691,0,0,1-9.094-6.94,47.351,47.351,0,0,0,1.472,6.8,1.832,1.832,0,0,1-.8,2.1,1.843,1.843,0,0,1-2.247-.214c-5.7-5.28-9.412-13.713-10.453-23.749-.952-9.183.56-18.686,4.043-25.421a1.469,1.469,0,0,1,2.612,1.343c-5.923,11.449-5.548,31.228,2.967,42.534a50.132,50.132,0,0,1-.824-14.477c0-.01,0-.02,0-.031l.181-1.656c0-.01,0-.02,0-.03.8-6.122,2.944-10.652,6.383-13.47.014-.013.027-.027.042-.038,2.8-2.28,6.184-3.251,9.6-3.962.788-.165,1.577-.315,2.36-.464,1.766-.337,3.591-.685,5.28-1.177.188-.056.37-.112.549-.172,2.135-.7,3.532-1.623,4.256-2.82.024-.04.051-.08.074-.121h0a5.761,5.761,0,0,0,.425-3.913,18.084,18.084,0,0,0-1.684-4.344,1.468,1.468,0,0,1,2.635-1.3,20.829,20.829,0,0,1,1.931,5.065,9.131,9.131,0,0,1-.268,4.869,13.754,13.754,0,0,0,3.272,5.123l.1.091c.156.149.315.295.478.435l.043.036q.229.2.466.378l.091.07c.167.125.337.248.51.364.057.038.118.076.177.115.106.068.212.135.319.2s.206.121.313.18c.055.032.112.061.169.092a11.333,11.333,0,0,0,5.417,1.325,1.465,1.465,0,1,1,0,2.93,15.05,15.05,0,0,1-2.884-.274v2.411h3.15a6.511,6.511,0,0,1,1.056.087,26.614,26.614,0,0,0,1.477-9.481,1.434,1.434,0,0,1-.017-.347,21.862,21.862,0,0,0-1.536-7.085,1.469,1.469,0,0,1,2.729-1.088,24.538,24.538,0,0,1,1.538,5.836,8.206,8.206,0,0,0,2.071-2.267,11.041,11.041,0,0,0,.547-9.238A16.543,16.543,0,0,0,4161.135,2210a13.239,13.239,0,0,0-6.46,2.3c6.868,1.235,12.7,4.389,16.257,8.869a1.467,1.467,0,0,1-2.3,1.82c-3.545-4.459-9.754-7.434-17.038-8.164-8.373-.84-16.635,1.4-22.1,6a15.3,15.3,0,0,0-1.36,1.3,1.467,1.467,0,0,1-2.156-1.99,18.038,18.038,0,0,1,1.623-1.55c5.834-4.9,14.464-7.4,23.258-6.759a15.248,15.248,0,0,1,10.013-4.735,19.48,19.48,0,0,1,20.242,13.129,13.926,13.926,0,0,1-.817,11.691,11.53,11.53,0,0,1-4.348,4.079,29.857,29.857,0,0,1-1.713,9.97,6.382,6.382,0,0,1,2.634,5.164v3.309a6.4,6.4,0,0,1-4.7,6.155v5.276a4.1,4.1,0,0,1-1.2,2.885l-1.215,1.211a3.655,3.655,0,0,1-.822,3.939l-1.073,1.07a3.675,3.675,0,0,1-5.206-5.19l1.073-1.071a3.692,3.692,0,0,1,3.949-.819l1.217-1.212a1.158,1.158,0,0,0,.337-.813v-5.043H4166.9c-1.477,5-6.8,9.635-11.922,12.034v1.422l6.984,2.5,2.32.83c.107.039.211.078.314.118s.208.082.309.126l.092.04c.176.074.341.148.5.226a13.09,13.09,0,0,1,7.475,11.809v14.449a2.644,2.644,0,0,1-2.645,2.637Zm.295-17.086v14.156h45.69v-14.156a10.135,10.135,0,0,0-3.476-7.637c-.115,4.366-2.252,8.112-5.8,9.816a9.571,9.571,0,0,1-4.153.932,11.854,11.854,0,0,0-18.826,0,9.562,9.562,0,0,1-4.153-.932c-3.549-1.7-5.686-5.446-5.8-9.809A10.186,10.186,0,0,0,4124.346,2289.914Zm38.013-9.889s0,.005,0,.008q-.089.2-.185.4c-.011.019-.02.038-.029.057-.019.035-.038.07-.055.1-.042.081-.084.162-.128.241l-.061.109c-.017.031-.035.063-.052.094l-.117.2c-.03.05-.059.1-.09.147l-.018.029-.028.046c-.038.06-.079.118-.118.178s-.059.088-.088.132-.044.065-.068.1-.054.074-.081.112l-.068.1c-.017.022-.032.045-.049.068-.033.045-.068.088-.1.131s-.063.083-.1.124-.057.074-.086.111-.056.067-.083.1-.056.066-.084.1-.042.052-.064.077-.047.053-.07.079c-.037.043-.075.084-.113.127s-.1.112-.151.167l-.065.07-.112.117-.179.181-.086.086-.074.071c-.08.076-.159.15-.241.224-.028.026-.053.051-.08.075l-.03.026c-.119.107-.241.211-.365.315l-.019.016-.073.059c-.1.077-.189.155-.287.229l-.071.056-.1.076c-.074.056-.147.11-.222.165-.042.03-.083.059-.124.09l-.09.062c-.065.047-.133.091-.2.136-.05.034-.1.069-.152.1l-.089.06-.054.033-.151.1c-.043.028-.085.055-.13.081l-.125.075-.143.084-.168.1-.018.01c-.053.031-.106.059-.159.088l-.144.08-.126.068c-.046.026-.1.05-.143.074-.069.036-.136.072-.206.107l-.013.007-.1.049c-.057.027-.113.055-.171.082-.077.037-.153.074-.231.11l-.11.05-.141.063c-.091.04-.185.08-.278.119l-.127.054c-.026.01-.052.022-.081.033-.132.054-.267.107-.4.158l-.075.03-.016.006c-.167.063-.336.122-.507.18l-.048.017-.123.04c-.114.037-.228.074-.343.11l-.117.036-.129.038c-.093.028-.187.055-.282.08-.06.017-.122.035-.185.051l-.1.029-.26.064-.186.045-.127.031-.135.03-.153.034-.127.028-.175.035-.186.036c-.055.01-.111.022-.167.032,2.66,2.136,5.908,2.777,8.539,1.516,2.979-1.429,4.555-4.989,4.052-9.007h0c-.084-.033-.165-.063-.245-.092l-.926-.332A.006.006,0,0,0,4162.359,2280.024Zm-31.269.329c-.076.027-.156.058-.234.088l-.008,0c-.5,4.017,1.073,7.578,4.05,9.005,2.632,1.263,5.881.622,8.539-1.515-.056-.01-.112-.022-.167-.033l-.18-.034-.18-.036c-.039-.007-.077-.017-.114-.026-.057-.011-.114-.024-.17-.037l-.126-.028-.134-.032-.177-.043-.267-.067-.1-.028-.18-.05-.289-.082-.126-.038c-.038-.01-.076-.022-.114-.035-.118-.036-.234-.074-.35-.112l-.119-.038-.046-.016q-.258-.089-.511-.182l-.014-.005c-.022-.009-.045-.018-.069-.026-.138-.053-.274-.107-.412-.162l-.078-.032-.124-.053c-.1-.04-.19-.081-.285-.123l-.138-.061-.107-.049-.238-.112-.165-.08-.1-.051,0,0c-.074-.036-.145-.074-.218-.112l-.138-.071-.128-.07c-.047-.025-.093-.051-.14-.078s-.118-.063-.175-.1l0,0-.17-.1-.141-.083-.126-.076c-.042-.025-.083-.053-.125-.078s-.108-.067-.161-.1l-.047-.03-.091-.061-.148-.1-.2-.139-.088-.061c-.041-.03-.083-.059-.123-.09-.076-.054-.151-.11-.225-.166-.034-.026-.068-.05-.1-.076l-.071-.054c-.1-.076-.2-.155-.291-.233l-.071-.057-.018-.016c-.124-.1-.247-.208-.366-.316-.011-.008-.02-.017-.029-.025l-.08-.073c-.081-.075-.163-.15-.242-.227-.024-.023-.05-.047-.073-.07s-.058-.056-.085-.085c-.062-.06-.121-.122-.18-.182l-.111-.116-.066-.071c-.051-.054-.1-.11-.152-.166s-.075-.085-.112-.127l-.07-.08c-.022-.025-.043-.052-.065-.077s-.056-.067-.083-.1l-.083-.1-.086-.111c-.033-.041-.065-.082-.1-.124s-.068-.085-.1-.13c-.017-.022-.035-.046-.05-.069l-.069-.1-.08-.111c-.023-.034-.047-.067-.069-.1s-.058-.088-.088-.131l-.118-.178-.028-.047c-.006-.01-.012-.019-.017-.029-.031-.048-.061-.1-.091-.147s-.079-.13-.115-.2c-.02-.031-.036-.062-.054-.094l-.061-.108c-.043-.08-.086-.161-.127-.241-.018-.035-.038-.069-.055-.1l-.028-.058c-.064-.13-.127-.262-.187-.4,0,0,0-.005,0-.009v0Zm11.25-5.057a1.464,1.464,0,0,1-.973,1.379l-6.569,2.351c.028.057.056.114.085.17s.042.086.065.128c.046.088.1.173.146.26.017.029.033.057.049.086.07.114.142.229.217.341.012.018.024.035.038.053.063.093.128.186.2.278l.083.108c.056.072.112.145.168.216.035.04.068.079.1.12.056.067.113.132.171.2.036.041.074.081.111.123.057.063.117.125.177.187.038.041.078.081.119.12.061.061.124.122.187.182.041.039.081.077.123.115.067.061.134.121.2.18.041.036.08.072.122.107.076.063.152.126.231.188.036.03.072.059.109.088.1.077.2.153.3.228l.052.039q.183.133.375.26c.024.017.05.032.074.047.1.068.2.133.31.2l.129.078c.088.053.177.106.268.157l.151.084c.085.048.171.094.259.141l.164.083c.086.044.171.088.259.13l.17.082.269.122c.057.025.113.051.17.075.094.041.188.08.284.118l.166.068c.105.041.21.081.316.12l.142.053c.142.051.285.1.429.146l.04.014c.158.051.319.1.482.147l.127.035c.118.033.237.067.358.1l.178.043c.1.026.211.052.317.075l.2.043.305.063.208.038.3.053.213.033c.1.016.207.03.309.043l.213.027c.106.013.215.024.324.035.067.007.136.015.2.02.117.01.237.02.357.029l.173.011c.178.01.356.019.536.024.366.01.743.01,1.11,0,.181-.005.36-.014.538-.024l.165-.011c.122-.009.245-.018.367-.029l.195-.019.332-.036.2-.026c.106-.015.212-.029.317-.045.069-.01.137-.021.205-.032.1-.017.21-.035.314-.054l.2-.037c.105-.021.21-.042.314-.065.063-.014.127-.026.19-.041.11-.024.22-.051.329-.078l.166-.041c.127-.033.252-.067.378-.1.036-.01.073-.019.109-.03q.247-.071.487-.149l.009,0c.154-.051.308-.1.459-.157l.129-.048c.11-.04.221-.082.33-.125.052-.02.1-.042.156-.063.1-.039.2-.08.292-.121.056-.023.111-.048.165-.072l.276-.125c.055-.025.109-.052.163-.078.09-.043.178-.088.268-.133l.157-.081c.089-.047.177-.1.265-.143l.146-.083c.093-.052.183-.106.272-.161l.124-.074q.163-.1.317-.2l.067-.043c.127-.085.252-.171.375-.26.016-.013.032-.025.05-.037.1-.076.205-.152.3-.229.038-.029.072-.058.108-.088.078-.062.156-.125.231-.189l.122-.1c.069-.06.137-.121.2-.182.042-.038.083-.076.123-.114.064-.06.126-.121.188-.182.041-.04.08-.08.119-.121.06-.061.119-.124.177-.186.037-.042.074-.082.112-.123.057-.064.112-.13.169-.2l.1-.121c.059-.071.113-.144.169-.216l.082-.108c.069-.092.135-.186.2-.278l.036-.053c.077-.112.148-.226.217-.341.018-.028.033-.057.05-.086.05-.087.1-.172.146-.26.022-.042.042-.085.064-.127l.085-.171-6.568-2.351a1.464,1.464,0,0,1-.973-1.379v-1.308l-.071.021c-.182.055-.362.109-.542.159l-.028.007c-.188.052-.375.1-.561.145l-.148.035c-.154.036-.307.071-.461.1l-.1.022c-.181.036-.363.07-.542.1l-.128.021c-.146.023-.29.045-.434.063l-.134.017c-.176.022-.352.041-.524.056l-.088.007q-.221.017-.439.029c-.046,0-.092.005-.139.006-.17.007-.34.011-.506.011s-.338,0-.508-.011c-.045,0-.093,0-.138-.006-.146-.008-.292-.017-.439-.029l-.089-.007c-.174-.015-.348-.034-.524-.056l-.133-.017c-.144-.019-.289-.04-.434-.063l-.129-.021c-.181-.03-.361-.063-.542-.1l-.1-.021c-.153-.032-.308-.066-.461-.1l-.147-.035c-.187-.046-.374-.093-.561-.145l-.029-.007c-.179-.05-.359-.1-.54-.159-.024-.007-.049-.012-.072-.02Zm23.466-4.527-1.074,1.07a.742.742,0,0,0,1.05,1.047l1.074-1.07a.742.742,0,0,0-1.05-1.047Zm-9.158-36.4c-.014.013-.029.023-.043.036-.094.079-.192.157-.292.235-.029.022-.058.044-.088.066-.114.086-.229.17-.351.252l-.042.026c-.11.075-.223.147-.339.219l-.1.061c-.129.078-.26.156-.4.229l-.036.02c-.126.069-.257.136-.389.2l-.11.054q-.217.107-.443.209l-.028.013c-.145.063-.292.125-.443.186-.04.017-.081.033-.122.049q-.238.1-.49.187l-.017.006q-.244.087-.5.17h0l-.066.022-.028.008c-.013.005-.028.009-.042.014-.161.052-.323.1-.488.15l-.047.015c-1.823.532-3.721.894-5.555,1.242-.809.155-1.609.308-2.4.473-3.1.648-5.963,1.484-8.253,3.348q-.269.218-.524.454c-.065.06-.128.127-.193.19-.1.1-.206.2-.3.3-.073.076-.141.157-.212.236-.087.1-.177.191-.262.291-.071.085-.137.174-.208.261s-.163.2-.241.3-.134.189-.2.283-.15.208-.224.316-.126.2-.189.3-.141.219-.209.333-.121.217-.181.326-.13.227-.192.345-.113.231-.171.347-.121.237-.177.359-.105.242-.158.363-.112.251-.166.381-.1.253-.146.379-.1.263-.152.4-.089.263-.132.395-.1.277-.141.419-.081.274-.119.41-.088.29-.127.439-.072.283-.107.425-.08.3-.116.459-.062.294-.094.441-.07.316-.1.478-.056.3-.083.456-.06.329-.087.5-.047.314-.069.472-.051.329-.073.5l-.176,4.746c.009,2.089,1.222,4.522,3.413,6.857a24.187,24.187,0,0,0,8.016,5.523,16.122,16.122,0,0,0,5.1,1.3c.22.013.439.021.652.021a15.3,15.3,0,0,0,5.75-1.318c5.8-2.427,10.679-7.342,11.347-11.434a5.98,5.98,0,0,0,.083-.972V2241.4c-.061-.026-.119-.056-.179-.084-.12-.055-.239-.11-.358-.168-.05-.024-.1-.05-.148-.075a14.447,14.447,0,0,1-3.551-2.537l-.089-.085c-.046-.044-.094-.087-.139-.133-.027-.027-.05-.055-.075-.083a16.469,16.469,0,0,1-2.933-4.088C4156.818,2234.224,4156.734,2234.3,4156.649,2234.37Zm10.66,23.51h3.15a3.467,3.467,0,0,0,3.469-3.457v-3.309a3.459,3.459,0,0,0-3.469-3.457h-3.15Zm-25.956,1.25a1.467,1.467,0,1,1,2.045-2.1,5.5,5.5,0,0,0,7.677,0,1.467,1.467,0,0,1,2.045,2.1,8.434,8.434,0,0,1-11.767,0Zm13.487-10.072a1.463,1.463,0,0,1-.146-2.067,4.1,4.1,0,0,1,6.294,0,1.467,1.467,0,0,1-2.218,1.92,1.16,1.16,0,0,0-1.857,0,1.472,1.472,0,0,1-2.072.146Zm-21.424,0a1.463,1.463,0,0,1-.146-2.067,4.1,4.1,0,0,1,6.293,0,1.467,1.467,0,0,1-2.219,1.92,1.16,1.16,0,0,0-1.857,0,1.471,1.471,0,0,1-2.072.146Z" transform="translate(-4118 -2207)"/></svg>