<svg id="logo" xmlns="http://www.w3.org/2000/svg" viewBox="0 0 167.778 40">
  <defs>
    <style>
      .cls-1, .cls-2 {
        fill: #fff;
      }

      .cls-1 {
        fill-rule: evenodd;
      }
    </style>
  </defs>
  <g id="Group_1861" data-name="Group 1861">
    <path id="Path_2315" data-name="Path 2315" class="cls-1" d="M40.49,23.343,34.4,19.8v7.059Z" transform="translate(-24.878 -14.319)"/>
    <path id="Path_2316" data-name="Path 2316" class="cls-1" d="M72.9,102.716l6.09,3.516V99.2Z" transform="translate(-52.72 -71.74)"/>
    <path id="Path_2317" data-name="Path 2317" class="cls-1" d="M74.89,3.516,68.8,0V7.031Z" transform="translate(-49.755)"/>
    <path id="Path_2318" data-name="Path 2318" class="cls-1" d="M38.5,122.616l6.09,3.516V119.1Z" transform="translate(-27.843 -86.131)"/>
    <path id="Path_2319" data-name="Path 2319" class="cls-1" d="M44.59,7.031V0L38.5,3.516Z" transform="translate(-27.843)"/>
    <path id="Path_2320" data-name="Path 2320" class="cls-1" d="M68.8,119.1v7.031l6.09-3.516Z" transform="translate(-49.755 -86.131)"/>
    <path id="Path_2321" data-name="Path 2321" class="cls-1" d="M7.225,19.8,0,23.98V43.329l7.225-4.18Z" transform="translate(0 -14.319)"/>
    <path id="Path_2322" data-name="Path 2322" class="cls-1" d="M103.1,63.2l7.253-4.152V39.7L103.1,43.88Z" transform="translate(-74.56 -28.71)"/>
    <path id="Path_2323" data-name="Path 2323" class="cls-1" d="M52.282,17.5,34.4,27.825v8.332L59.507,21.68Z" transform="translate(-24.878 -12.656)"/>
    <path id="Path_2324" data-name="Path 2324" class="cls-1" d="M11.353,78.185,29.235,67.86V59.5L4.1,74.005Z" transform="translate(-2.965 -43.029)"/>
  </g>
  <path id="Path_2325" data-name="Path 2325" class="cls-2" d="M170.171,86.6l4.346-7.862V86.6h3.571V74.166h-3.571l-4.346,7.723V74.166H166.6V86.6Zm10.076,0h3.571V81.7h4.1v4.9h3.571V74.166h-3.571V78.9h-4.1V74.166h-3.571Zm19.239.221c3.211,0,5.536-1.661,5.785-4.872h-3.543a2.139,2.139,0,0,1-2.325,2.048c-1.716,0-2.657-1.273-2.657-3.516v-.138c0-2.27,1.024-3.516,2.6-3.516a1.932,1.932,0,0,1,2.076,1.965h3.682c-.3-3.294-2.547-4.789-5.758-4.789a6.075,6.075,0,0,0-6.339,6.339v.138C193.008,84.27,195.14,86.817,199.486,86.817Zm9.578-.221h3.571V76.907h3.211v-2.74H205.825v2.74h3.239Zm8,0h3.543v-4.18h1.329c3.073,0,4.817-1.412,4.817-4.014v-.055c0-2.63-1.578-4.152-4.983-4.152h-4.734V86.6Zm3.543-6.616V76.851h1.052c1.107,0,1.744.443,1.744,1.495v.083c0,1.024-.609,1.578-1.772,1.578h-1.024Zm9.356,6.81c2.27,0,3.266-1.273,4.18-3.349l4.1-9.273h-3.46l-1.965,4.872L230.6,74.166h-3.709l4.318,8.72a1.806,1.806,0,0,1-1.578,1.052,2.964,2.964,0,0,1-1-.166V86.54A3.187,3.187,0,0,0,229.963,86.789Zm9.218-.194h3.183V78.844l3.017,7.751h1.19l3.045-7.751V86.6h3.543V74.166h-4.567l-2.381,6.616-2.381-6.616h-4.651V86.6Zm16.138,0h8.858v-2.74h-5.315v-2.27h4.014V79.038h-4.014V76.907H263.9v-2.74H255.32V86.6Zm10.464,0h3.571V81.7h4.1v4.9h3.571V74.166h-3.571V78.9h-4.1V74.166h-3.571Zm15.7,0h3.571V76.907h3.211v-2.74h-9.993v2.74h3.211Z" transform="translate(-120.482 -53.516)"/>
  <path id="Path_2326" data-name="Path 2326" class="cls-2" d="M281.728,22.386l4.263-6.422v6.422h1.329v-8.36h-1.329l-4.263,6.422V14.026H280.4v8.36Zm2.1-9.882a2.15,2.15,0,0,0,2.159-2.1h-1.107c-.055.637-.388,1.19-1.052,1.19-.637,0-.913-.554-.969-1.19H281.7A2.163,2.163,0,0,0,283.832,12.5Zm-10.99,9.882,4.263-6.422v6.422h1.329v-8.36h-1.329l-4.263,6.422V14.026h-1.329v8.36Zm-4.6,0h1.329v-8.36h-1.329v3.516h-4.1V14.026h-1.329v8.36h1.329V18.649h4.1Zm-11.377.138a3.019,3.019,0,0,0,2.6-1.19v1.052H260.8V16.878c0-2.325-1.439-2.99-3.045-2.99s-3.128.692-3.294,2.6h1.329c.138-1.024.775-1.495,1.91-1.495,1.273,0,1.8.554,1.8,1.882v.609h-1.19c-2.131,0-4.18.664-4.18,2.574C254.1,21.777,255.32,22.525,256.87,22.525Zm.138-1.052c-1.163,0-1.578-.554-1.578-1.412,0-1.218,1.218-1.633,2.907-1.633H259.5v1.024C259.472,20.753,258.392,21.473,257.008,21.473Zm-5.813.913h1.329v-8.36h-6.588v8.36h1.329V15.134H251.2Zm-12.069,0h.609l2.768-7.031v7.031h1.3v-8.36H241.95l-2.436,6.228L237.161,14h-1.91v8.36h1.135V15.327Zm-9.495-.969c-1.689,0-2.74-1.246-2.74-3.156v-.138c0-1.91,1.052-3.156,2.74-3.156,1.661,0,2.74,1.246,2.74,3.183v.111C232.372,20.144,231.32,21.417,229.631,21.417Zm0,1.107a4.036,4.036,0,0,0,4.125-4.263v-.138a4.1,4.1,0,1,0-8.194.028v.138A4,4,0,0,0,229.631,22.525Zm-5.785-.138h1.606l-3.875-4.429,3.571-3.931H223.6l-3.46,3.9v-3.9h-1.329v8.36h1.329V18.123Zm-13.73.138a3.019,3.019,0,0,0,2.6-1.19v1.052h1.329V16.878c0-2.325-1.439-2.99-3.045-2.99s-3.128.692-3.294,2.6h1.329c.138-1.024.775-1.495,1.91-1.495,1.273,0,1.8.554,1.8,1.882v.609h-1.19c-2.132,0-4.18.664-4.18,2.574C207.347,21.777,208.565,22.525,210.116,22.525Zm.138-1.052c-1.163,0-1.578-.554-1.578-1.412,0-1.218,1.218-1.633,2.907-1.633h1.163v1.024C212.718,20.753,211.638,21.473,210.254,21.473Zm-5.813.913h1.329v-8.36h-6.588v8.36h1.329V15.134h3.931Zm-8.886,0h1.329v-8.36H190.3v8.36h1.329V15.134h3.931Zm-12.374,2.879h1.329l4.623-11.239h-1.356l-2.325,5.979L182.9,14.026h-1.412l3.266,7.5Zm-10.021,0h1.329V21a3.141,3.141,0,0,0,2.824,1.522c2.3,0,3.792-1.744,3.792-4.318v-.138c0-2.6-1.606-4.208-3.792-4.208a3.44,3.44,0,0,0-2.824,1.55V14h-1.329Zm4.014-3.848c-1.633,0-2.74-1-2.74-3.156v-.138c0-2.131,1.19-3.156,2.74-3.156,1.412,0,2.574,1.052,2.574,3.156v.138C179.721,20.31,178.835,21.417,177.174,21.417Zm-5.287-6.284V14.026H166.6v8.36h1.329V15.134Z" transform="translate(-120.482 -7.521)"/>
</svg>
