<svg xmlns="http://www.w3.org/2000/svg" viewBox="0 0 136.842 120"><defs><style>.a{fill:#141414;fill-rule:evenodd;opacity:0.1;}</style></defs><path class="a" d="M12.937,61.949A2.677,2.677,0,0,1,8.95,61.6L.623,51.674a2.674,2.674,0,0,1,4.1-3.432l4.087,4.871A60.009,60.009,0,0,1,127.023,47.1a2.677,2.677,0,0,1-5.233,1.131A54.651,54.651,0,0,0,14.107,53.986l5.319-4.463a2.674,2.674,0,0,1,3.432,4.1Zm36.451-7.454-2.91-8.909H60.4a2.679,2.679,0,0,0,0-5.358H44.729L42.041,32A2.674,2.674,0,0,0,39.5,30.149l-10.034,0a2.678,2.678,0,0,0,0,5.357h8.1q7.2,22.037,14.393,44.077a9.759,9.759,0,1,0,10.688,5.156h18.6A9.763,9.763,0,1,0,96.853,82.25a9.856,9.856,0,0,0-6.91-2.872H57.514l-1.543-4.726,33.979,0A2.676,2.676,0,0,0,92.492,72.8l9.436-28.9a2.68,2.68,0,0,0-2.487-3.674H81.83a2.679,2.679,0,0,0,0,5.358H95.754l-2.91,8.909ZM91.1,59.85H51.136l3.085,9.445h33.79ZM71.116,40.228a2.678,2.678,0,1,0,2.679,2.679A2.678,2.678,0,0,0,71.116,40.228Zm19.017,44.5a4.39,4.39,0,1,1-.491.006A3.2,3.2,0,0,1,90.133,84.729Zm-33.089,1.3a4.4,4.4,0,1,1-3.114-1.29A4.391,4.391,0,0,1,57.043,86.025Zm60.374-15.549,5.318-4.463A54.65,54.65,0,0,1,15.052,71.772,2.676,2.676,0,0,0,9.82,72.9a60.006,60.006,0,0,0,118.21-6.016l4.088,4.871a2.674,2.674,0,0,0,4.1-3.432L127.893,58.4a2.677,2.677,0,0,0-3.987-.352l-9.92,8.324a2.674,2.674,0,1,0,3.432,4.1Zm0,0"/></svg>